<svg width="17" height="22" viewBox="0 0 17 22" fill="none" xmlns="http://www.w3.org/2000/svg">
<path d="M8.44907 10.5613C9.02995 10.5613 9.52721 10.3545 9.94086 9.94086C10.3545 9.52721 10.5613 9.02994 10.5613 8.44907C10.5613 7.8682 10.3545 7.37093 9.94086 6.95728C9.52721 6.54363 9.02995 6.3368 8.44907 6.3368C7.8682 6.3368 7.37094 6.54363 6.95728 6.95728C6.54363 7.37093 6.33681 7.8682 6.33681 8.44907C6.33681 9.02994 6.54363 9.52721 6.95728 9.94086C7.37094 10.3545 7.8682 10.5613 8.44907 10.5613ZM8.44907 18.3239C10.5965 16.3525 12.1896 14.5614 13.2281 12.9508C14.2666 11.3402 14.7859 9.91005 14.7859 8.6603C14.7859 6.74165 14.1742 5.17065 12.9508 3.9473C11.7275 2.72394 10.2269 2.11226 8.44907 2.11226C6.67125 2.11226 5.17066 2.72394 3.9473 3.9473C2.72395 5.17065 2.11227 6.74165 2.11227 8.6603C2.11227 9.91005 2.63153 11.3402 3.67007 12.9508C4.7086 14.5614 6.3016 16.3525 8.44907 18.3239ZM8.44907 21.1227C5.61511 18.7112 3.49844 16.4713 2.09907 14.403C0.699689 12.3348 0 10.4205 0 8.6603C0 6.01996 0.849308 3.91649 2.54792 2.34989C4.24654 0.783294 6.21359 -5.72205e-06 8.44907 -5.72205e-06C10.6846 -5.72205e-06 12.6516 0.783294 14.3502 2.34989C16.0488 3.91649 16.8981 6.01996 16.8981 8.6603C16.8981 10.4205 16.1985 12.3348 14.7991 14.403C13.3997 16.4713 11.283 18.7112 8.44907 21.1227Z" fill="#2563EB"/>
</svg>
