<svg width="15" height="11" viewBox="0 0 15 11" fill="none" xmlns="http://www.w3.org/2000/svg">
<path d="M7.43518 8.11089C8.28009 8.11089 8.99826 7.81518 9.5897 7.22374C10.1811 6.63231 10.4769 5.91413 10.4769 5.06923C10.4769 4.22432 10.1811 3.50615 9.5897 2.91471C8.99826 2.32328 8.28009 2.02756 7.43518 2.02756C6.59028 2.02756 5.87211 2.32328 5.28067 2.91471C4.68924 3.50615 4.39352 4.22432 4.39352 5.06923C4.39352 5.91413 4.68924 6.63231 5.28067 7.22374C5.87211 7.81518 6.59028 8.11089 7.43518 8.11089ZM7.43518 6.89423C6.92824 6.89423 6.49734 6.7168 6.14248 6.36194C5.78762 6.00707 5.61019 5.57617 5.61019 5.06923C5.61019 4.56228 5.78762 4.13138 6.14248 3.77652C6.49734 3.42166 6.92824 3.24423 7.43518 3.24423C7.94213 3.24423 8.37303 3.42166 8.72789 3.77652C9.08275 4.13138 9.26019 4.56228 9.26019 5.06923C9.26019 5.57617 9.08275 6.00707 8.72789 6.36194C8.37303 6.7168 7.94213 6.89423 7.43518 6.89423ZM7.43518 10.1387C5.79043 10.1387 4.29213 9.67961 2.94028 8.76147C1.58843 7.84334 0.608333 6.61259 0 5.06923C0.608333 3.52586 1.58843 2.29511 2.94028 1.37698C4.29213 0.458849 5.79043 -0.000217438 7.43518 -0.000217438C9.07994 -0.000217438 10.5782 0.458849 11.9301 1.37698C13.2819 2.29511 14.262 3.52586 14.8704 5.06923C14.262 6.61259 13.2819 7.84334 11.9301 8.76147C10.5782 9.67961 9.07994 10.1387 7.43518 10.1387ZM7.43518 8.78682C8.70818 8.78682 9.87697 8.45167 10.9416 7.78138C12.0061 7.11109 12.8201 6.20704 13.3833 5.06923C12.8201 3.93142 12.0061 3.02737 10.9416 2.35707C9.87697 1.68678 8.70818 1.35163 7.43518 1.35163C6.16219 1.35163 4.9934 1.68678 3.92882 2.35707C2.86424 3.02737 2.05031 3.93142 1.48704 5.06923C2.05031 6.20704 2.86424 7.11109 3.92882 7.78138C4.9934 8.45167 6.16219 8.78682 7.43518 8.78682Z" fill="#111417"/>
</svg>
