<svg width="22" height="22" viewBox="0 0 22 22" fill="none" xmlns="http://www.w3.org/2000/svg">
<path d="M14.0466 15.5252L15.5252 14.0466L11.6175 10.1389V5.28067H9.50521V10.9838L14.0466 15.5252ZM10.5613 21.1227C9.10036 21.1227 7.72738 20.8454 6.44242 20.291C5.15746 19.7365 4.03971 18.984 3.08919 18.0335C2.13867 17.083 1.38618 15.9652 0.831706 14.6803C0.277235 13.3953 0 12.0223 0 10.5613C0 9.10035 0.277235 7.72738 0.831706 6.44241C1.38618 5.15745 2.13867 4.03971 3.08919 3.08919C4.03971 2.13867 5.15746 1.38617 6.44242 0.831699C7.72738 0.277229 9.10036 -5.72205e-06 10.5613 -5.72205e-06C12.0223 -5.72205e-06 13.3953 0.277229 14.6803 0.831699C15.9652 1.38617 17.083 2.13867 18.0335 3.08919C18.984 4.03971 19.7365 5.15745 20.291 6.44241C20.8455 7.72738 21.1227 9.10035 21.1227 10.5613C21.1227 12.0223 20.8455 13.3953 20.291 14.6803C19.7365 15.9652 18.984 17.083 18.0335 18.0335C17.083 18.984 15.9652 19.7365 14.6803 20.291C13.3953 20.8454 12.0223 21.1227 10.5613 21.1227ZM10.5613 19.0104C12.9024 19.0104 14.8959 18.1875 16.5417 16.5417C18.1875 14.8959 19.0104 12.9024 19.0104 10.5613C19.0104 8.22024 18.1875 6.22679 16.5417 4.58098C14.8959 2.93517 12.9024 2.11226 10.5613 2.11226C8.22025 2.11226 6.22679 2.93517 4.58098 4.58098C2.93517 6.22679 2.11227 8.22024 2.11227 10.5613C2.11227 12.9024 2.93517 14.8959 4.58098 16.5417C6.22679 18.1875 8.22025 19.0104 10.5613 19.0104Z" fill="#2563EB"/>
</svg>
