<svg width="22" height="20" viewBox="0 0 22 20" fill="none" xmlns="http://www.w3.org/2000/svg">
<path d="M20.1161 8.50187V16.8981C20.1161 17.479 19.9093 17.9763 19.4956 18.3899C19.082 18.8036 18.5847 19.0104 18.0039 19.0104H3.21798C2.6371 19.0104 2.13984 18.8036 1.72619 18.3899C1.31253 17.9763 1.10571 17.479 1.10571 16.8981V8.50187C0.700857 8.13222 0.388417 7.65696 0.168389 7.07609C-0.0516392 6.49522 -0.0560398 5.86154 0.155187 5.17505L1.26413 1.58419C1.40495 1.12653 1.65578 0.748085 2.01662 0.448847C2.37747 0.149609 2.79552 -9.53674e-06 3.27078 -9.53674e-06H17.9511C18.4263 -9.53674e-06 18.84 0.145208 19.192 0.435646C19.5441 0.726082 19.7993 1.10893 19.9577 1.58419L21.0666 5.17505C21.2779 5.86154 21.2735 6.48641 21.0534 7.04969C20.8334 7.61296 20.521 8.09702 20.1161 8.50187ZM12.9344 7.39293C13.4097 7.39293 13.7705 7.23011 14.017 6.90447C14.2634 6.57883 14.3602 6.21358 14.3074 5.80873L13.7265 2.11226H11.6671V6.01996C11.6671 6.3896 11.7903 6.71084 12.0367 6.98368C12.2831 7.25651 12.5824 7.39293 12.9344 7.39293ZM8.18181 7.39293C8.58666 7.39293 8.9167 7.25651 9.17194 6.98368C9.42717 6.71084 9.55478 6.3896 9.55478 6.01996V2.11226H7.49532L6.91445 5.80873C6.84404 6.23118 6.93645 6.60083 7.19168 6.91767C7.44692 7.23451 7.77696 7.39293 8.18181 7.39293ZM3.48201 7.39293C3.79885 7.39293 4.07609 7.27851 4.31372 7.04969C4.55135 6.82086 4.69657 6.53042 4.74937 6.17838L5.33025 2.11226H3.27078L2.21465 5.65031C2.10904 6.00235 2.16624 6.3808 2.38627 6.78565C2.6063 7.1905 2.97155 7.39293 3.48201 7.39293ZM17.7398 7.39293C18.2503 7.39293 18.6199 7.1905 18.8488 6.78565C19.0776 6.3808 19.1304 6.00235 19.0072 5.65031L17.8982 2.11226H15.8916L16.4725 6.17838C16.5253 6.53042 16.6705 6.82086 16.9081 7.04969C17.1458 7.27851 17.423 7.39293 17.7398 7.39293ZM3.21798 16.8981H18.0039V9.45239C17.9158 9.4876 17.8586 9.5052 17.8322 9.5052C17.8058 9.5052 17.775 9.5052 17.7398 9.5052C17.2646 9.5052 16.8465 9.42599 16.4857 9.26757C16.1248 9.10915 15.7684 8.85392 15.4163 8.50187C15.0995 8.81871 14.7386 9.06514 14.3338 9.24116C13.9289 9.41719 13.4977 9.5052 13.04 9.5052C12.5648 9.5052 12.1203 9.41719 11.7067 9.24116C11.293 9.06514 10.9278 8.81871 10.6109 8.50187C10.3117 8.81871 9.96404 9.06514 9.56799 9.24116C9.17194 9.41719 8.74508 9.5052 8.28742 9.5052C7.77696 9.5052 7.3149 9.41719 6.90125 9.24116C6.48759 9.06514 6.12235 8.81871 5.80551 8.50187C5.43586 8.87152 5.07061 9.13115 4.70977 9.28077C4.34892 9.43039 3.93967 9.5052 3.48201 9.5052C3.44681 9.5052 3.4072 9.5052 3.3632 9.5052C3.31919 9.5052 3.27078 9.4876 3.21798 9.45239V16.8981ZM18.0039 16.8981H3.21798C3.27078 16.8981 3.31919 16.8981 3.3632 16.8981C3.4072 16.8981 3.44681 16.8981 3.48201 16.8981C3.93967 16.8981 4.34892 16.8981 4.70977 16.8981C5.07061 16.8981 5.43586 16.8981 5.80551 16.8981C5.96393 16.8981 6.13555 16.8981 6.32037 16.8981C6.5052 16.8981 6.70322 16.8981 6.91445 16.8981C7.12567 16.8981 7.3457 16.8981 7.57453 16.8981C7.80336 16.8981 8.04099 16.8981 8.28742 16.8981C8.51625 16.8981 8.73628 16.8981 8.94751 16.8981C9.15873 16.8981 9.36556 16.8981 9.56799 16.8981C9.77041 16.8981 9.95963 16.8981 10.1357 16.8981C10.3117 16.8981 10.4701 16.8981 10.6109 16.8981C10.9278 16.8981 11.293 16.8981 11.7067 16.8981C12.1203 16.8981 12.5648 16.8981 13.04 16.8981C13.2689 16.8981 13.4889 16.8981 13.7001 16.8981C13.9113 16.8981 14.1182 16.8981 14.3206 16.8981C14.523 16.8981 14.7166 16.8981 14.9015 16.8981C15.0863 16.8981 15.2579 16.8981 15.4163 16.8981C15.7684 16.8981 16.1248 16.8981 16.4857 16.8981C16.8465 16.8981 17.2646 16.8981 17.7398 16.8981C17.775 16.8981 17.8058 16.8981 17.8322 16.8981C17.8586 16.8981 17.9158 16.8981 18.0039 16.8981Z" fill="#2563EB"/>
</svg>
