<svg width="20" height="20" viewBox="0 0 20 20" fill="none" xmlns="http://www.w3.org/2000/svg">
<path d="M17.9015 19.0104C15.7012 19.0104 13.5273 18.5307 11.3798 17.5714C9.23237 16.6121 7.27853 15.2523 5.5183 13.4921C3.75808 11.7319 2.3983 9.77803 1.43898 7.63056C0.479661 5.48309 0 3.30921 0 1.10893C0 0.792091 0.105613 0.528057 0.31684 0.31683C0.528067 0.105604 0.792101 -9.53674e-06 1.10894 -9.53674e-06H5.38628C5.63272 -9.53674e-06 5.85274 0.083601 6.04637 0.250822C6.23999 0.418043 6.35441 0.616068 6.38961 0.844898L7.0761 4.54137C7.1113 4.823 7.1025 5.06063 7.0497 5.25426C6.99689 5.44788 6.90008 5.6151 6.75926 5.75592L4.19813 8.34345C4.55018 8.99473 4.96823 9.62401 5.45229 10.2313C5.93635 10.8386 6.46882 11.4238 7.0497 11.9871C7.59537 12.5328 8.16744 13.0388 8.76591 13.5053C9.36439 13.9718 9.99807 14.3986 10.667 14.7859L13.1489 12.304C13.3073 12.1455 13.5141 12.0267 13.7694 11.9475C14.0246 11.8683 14.2754 11.8463 14.5218 11.8815L18.1655 12.6208C18.4119 12.6912 18.6144 12.8188 18.7728 13.0036C18.9312 13.1885 19.0104 13.3953 19.0104 13.6241V17.9015C19.0104 18.2183 18.9048 18.4823 18.6936 18.6936C18.4823 18.9048 18.2183 19.0104 17.9015 19.0104ZM3.19481 6.3368L4.93743 4.59417L4.48857 2.11226H2.13867C2.22668 2.83395 2.3499 3.54684 2.50832 4.25093C2.66674 4.95502 2.89557 5.65031 3.19481 6.3368ZM12.6472 15.7892C13.3337 16.0884 14.0334 16.3261 14.7463 16.5021C15.4592 16.6781 16.1765 16.7925 16.8981 16.8453V14.5218L14.4162 14.0202L12.6472 15.7892Z" fill="#2563EB"/>
</svg>
