<svg width="20" height="17" viewBox="0 0 20 17" fill="none" xmlns="http://www.w3.org/2000/svg">
<path d="M19.6038 14.2009L10.9788 7.77899V6.84149C12.6663 6.37274 13.7913 4.68524 13.4163 2.81024C13.1819 1.49774 12.1038 0.419618 10.7913 0.0914927C8.5413 -0.424131 6.4788 1.31024 6.4788 3.51337H8.49443C8.49443 2.66962 9.15068 2.01337 9.99443 2.01337C10.8382 2.01337 11.4944 2.66962 11.4944 3.51337C11.4944 4.35712 10.7913 5.01337 9.94755 5.01337C9.43193 5.01337 9.01005 5.48212 9.01005 5.99774V7.77899L0.385054 14.2009C-0.364946 14.8102 0.0569286 16.029 0.994429 16.029H18.9944C19.9319 16.029 20.3538 14.8102 19.6038 14.2009ZM3.99443 14.0134L9.99443 9.51337L15.9944 14.0134H3.99443Z" fill="#3B82F6"/>
</svg>
