<svg width="58" height="58" viewBox="0 0 58 58" fill="none" xmlns="http://www.w3.org/2000/svg">
<rect width="57.6" height="57.6" rx="19.2" fill="#3B82F6" fill-opacity="0.1"/>
<path d="M32.9625 25.9312C32.7937 22.6125 31.4437 19.35 28.8562 16.8187C26.325 19.35 24.8625 22.6125 24.6375 25.9312C26.1562 26.775 27.5625 27.8437 28.8 29.1375C30.0375 27.8437 31.4437 26.775 32.9625 25.9312ZM28.8562 20.6437C29.6437 21.8812 30.15 23.2312 30.4312 24.6937C29.8687 25.0312 29.3062 25.425 28.8 25.875C28.2937 25.425 27.7875 25.0312 27.225 24.6937C27.5062 23.2312 28.0687 21.8812 28.8562 20.6437ZM28.8 32.9625C27.8437 31.4437 26.55 30.15 25.1437 29.0812C22.7812 27.3937 19.9125 26.3812 16.8187 26.3812C16.8187 32.7937 20.8125 38.1937 26.4375 40.1625C27.1687 40.4437 27.9562 40.6687 28.8 40.7812C29.6437 40.6687 30.375 40.4437 31.1625 40.1625C36.7875 38.1937 40.7812 32.7937 40.7812 26.3812C35.775 26.3812 31.3875 29.025 28.8 32.9625ZM30.375 37.9125C29.8687 38.0812 29.3062 38.25 28.8 38.3625C28.2375 38.25 27.7312 38.1375 27.225 37.9125C23.2875 36.5062 20.4187 33.1312 19.5187 29.1375C20.8125 29.4187 22.1062 29.9812 23.2312 30.7125C23.4 30.825 23.5687 30.9375 23.6812 30.9937L23.7937 31.05C24.975 31.95 25.9875 33.0187 26.775 34.2562L28.8 37.2937L30.825 34.2562C31.6125 33.0187 32.6812 31.8937 33.8625 31.05L33.9187 30.9937C34.0312 30.9375 34.1437 30.8812 34.2562 30.825V30.7687C35.4375 29.9812 36.7312 29.4187 38.0812 29.0812C37.1812 33.1312 34.3125 36.5062 30.375 37.9125ZM25.2 29.1375C25.1437 29.1375 25.1437 29.0812 25.1437 29.0812C25.1437 29.1375 25.1437 29.1375 25.2 29.1375Z" fill="#3B82F6"/>
</svg>
