<svg width="20" height="20" viewBox="0 0 20 20" fill="none" xmlns="http://www.w3.org/2000/svg">
<path d="M13.4531 7.59375C13.3125 4.82812 12.1875 2.10938 10.0312 0C7.92188 2.10938 6.70312 4.82812 6.51562 7.59375C7.78125 8.29688 8.95312 9.1875 9.98438 10.2656C11.0156 9.1875 12.1875 8.29688 13.4531 7.59375ZM10.0312 3.1875C10.6875 4.21875 11.1094 5.34375 11.3438 6.5625C10.875 6.84375 10.4062 7.17188 9.98438 7.54688C9.5625 7.17188 9.14062 6.84375 8.67188 6.5625C8.90625 5.34375 9.375 4.21875 10.0312 3.1875ZM9.98438 13.4531C9.1875 12.1875 8.10938 11.1094 6.9375 10.2188C4.96875 8.8125 2.57812 7.96875 0 7.96875C0 13.3125 3.32812 17.8125 8.01562 19.4531C8.625 19.6875 9.28125 19.875 9.98438 19.9688C10.6875 19.875 11.2969 19.6875 11.9531 19.4531C16.6406 17.8125 19.9688 13.3125 19.9688 7.96875C15.7969 7.96875 12.1406 10.1719 9.98438 13.4531ZM11.2969 17.5781C10.875 17.7188 10.4062 17.8594 9.98438 17.9531C9.51562 17.8594 9.09375 17.7656 8.67188 17.5781C5.39062 16.4062 3 13.5938 2.25 10.2656C3.32812 10.5 4.40625 10.9688 5.34375 11.5781C5.48438 11.6719 5.625 11.7656 5.71875 11.8125L5.8125 11.8594C6.79688 12.6094 7.64062 13.5 8.29688 14.5312L9.98438 17.0625L11.6719 14.5312C12.3281 13.5 13.2188 12.5625 14.2031 11.8594L14.25 11.8125C14.3438 11.7656 14.4375 11.7188 14.5312 11.6719V11.625C15.5156 10.9688 16.5938 10.5 17.7188 10.2188C16.9688 13.5938 14.5781 16.4062 11.2969 17.5781ZM6.98438 10.2656C6.9375 10.2656 6.9375 10.2188 6.9375 10.2188C6.9375 10.2656 6.9375 10.2656 6.98438 10.2656Z" fill="#3B82F6"/>
</svg>
