<svg width="29" height="29" viewBox="0 0 29 29" fill="none" xmlns="http://www.w3.org/2000/svg">
<path d="M25.9313 21.825L15.5813 14.1188V12.9938C17.6063 12.4313 18.9563 10.4063 18.5063 8.15625C18.2251 6.58125 16.9313 5.2875 15.3563 4.89375C12.6563 4.275 10.1813 6.35625 10.1813 9H12.6001C12.6001 7.9875 13.3876 7.2 14.4001 7.2C15.4126 7.2 16.2001 7.9875 16.2001 9C16.2001 10.0125 15.3563 10.8 14.3438 10.8C13.7251 10.8 13.2188 11.3625 13.2188 11.9813V14.1188L2.8688 21.825C1.9688 22.5563 2.47505 24.0188 3.60005 24.0188H25.2001C26.3251 24.0188 26.8313 22.5563 25.9313 21.825ZM7.20005 21.6L14.4001 16.2L21.6001 21.6H7.20005Z" fill="#3B82F6"/>
</svg>
