<svg width="58" height="58" viewBox="0 0 58 58" fill="none" xmlns="http://www.w3.org/2000/svg">
<rect width="57.6" height="57.6" rx="19.2" fill="#3B82F6" fill-opacity="0.1"/>
<path d="M34.3688 19.8001L37.8 23.2313L34.3688 26.6063L30.9938 23.2313L34.3688 19.8001ZM25.2 20.4188V25.2001H20.4188V20.4188H25.2ZM37.1813 32.4001V37.1813H32.4V32.4001H37.1813ZM25.2 32.4001V37.1813H20.4188V32.4001H25.2ZM34.3688 16.4251L27.6188 23.2313L34.3688 29.9813L41.175 23.2313L34.3688 16.4251ZM27.6188 18.0001H18V27.6188H27.6188V18.0001ZM39.6 29.9813H29.9813V39.6001H39.6V29.9813ZM27.6188 29.9813H18V39.6001H27.6188V29.9813Z" fill="#3B82F6"/>
</svg>
