<svg width="58" height="58" viewBox="0 0 58 58" fill="none" xmlns="http://www.w3.org/2000/svg">
<rect width="57.6" height="57.6" rx="19.2" fill="#3B82F6" fill-opacity="0.1"/>
<path d="M19.1813 25.2001H25.2C25.2 23.9063 24.1313 22.7813 22.7813 22.7813H19.1813C18.5625 22.7813 18 23.3438 18 24.0188C18 24.6376 18.5625 25.2001 19.1813 25.2001ZM40.7813 31.2751V24.0188C40.7813 22.6688 39.7125 21.6001 38.4188 21.6001H30.825L29.5875 20.3063L31.275 18.6188L30.4313 17.7751L26.1563 21.9938L27.0563 22.8938L28.7438 21.2063L29.9813 22.4438V25.2001C29.9813 26.4938 28.9125 27.6188 27.6188 27.6188H25.1438C24.8625 27.3938 24.6375 27.2251 24.3 27.0563L23.85 28.1251L23.2875 27.9001L23.7938 26.8313C23.1188 26.5501 22.3875 26.3813 21.6 26.3813C20.9813 26.3813 20.3625 26.5501 19.8 26.7188L20.1938 27.7876L19.6313 28.0126L19.1813 26.8876C17.9438 27.4501 16.9313 28.4626 16.2563 29.7001L17.325 30.1501L17.1 30.7126L16.0313 30.2063C15.75 30.8813 15.5813 31.6126 15.5813 32.4001C15.5813 33.0188 15.75 33.6376 15.9188 34.2001L16.9875 33.8063L17.2125 34.3688L16.0875 34.8188C16.65 36.0563 17.6625 37.0688 18.9 37.7438L19.35 36.6751L19.9125 36.9001L19.4063 37.9688C20.0813 38.2501 20.8125 38.4188 21.6 38.4188C22.2188 38.4188 22.8375 38.2501 23.4 38.0813L23.0063 37.0126L23.5688 36.7876L24.0188 37.9126C25.2563 37.3501 26.2688 36.3376 26.9438 35.1001L25.875 34.6501L26.1 34.0876L27.1688 34.5938C27.2813 34.2563 27.3938 33.9188 27.45 33.5813H33.6376C33.6376 33.8063 33.5813 33.9751 33.5813 34.2001C33.5813 36.5063 35.4938 38.4188 37.8 38.4188C40.1063 38.4188 42.0188 36.5063 42.0188 34.2001C42.0188 33.0751 41.5688 32.0063 40.7813 31.2751ZM21.6 36.0001C19.6313 36.0001 18 34.3688 18 32.4001C18 30.4313 19.6313 28.8001 21.6 28.8001C23.5688 28.8001 25.2 30.4313 25.2 32.4001C25.2 34.3688 23.5688 36.0001 21.6 36.0001ZM27.45 31.2188C27.3938 30.9938 27.3375 30.7688 27.2813 30.6001L26.2125 30.9938L25.9875 30.4313L27.1125 29.9813H27.6188C30.2625 29.9813 32.4 27.8438 32.4 25.2001V24.0188H38.4188V30.0376C38.1938 30.0376 38.025 29.9813 37.8 29.9813C36.675 29.9813 35.6063 30.4313 34.875 31.2188H27.45ZM37.8 36.0001C36.7875 36.0001 36 35.2126 36 34.2001C36 33.1876 36.7875 32.4001 37.8 32.4001C38.8125 32.4001 39.6 33.1876 39.6 34.2001C39.6 35.2126 38.8125 36.0001 37.8 36.0001Z" fill="#3B82F6"/>
</svg>
