<svg width="23" height="18" viewBox="0 0 23 18" fill="none" xmlns="http://www.w3.org/2000/svg">
<path d="M3 6.1875H8.01562C8.01562 5.10938 7.125 4.17188 6 4.17188H3C2.48438 4.17188 2.01562 4.64062 2.01562 5.20312C2.01562 5.71875 2.48438 6.1875 3 6.1875ZM21 11.25V5.20312C21 4.07812 20.1094 3.1875 19.0312 3.1875H12.7031L11.6719 2.10938L13.0781 0.703125L12.375 0L8.8125 3.51562L9.5625 4.26562L10.9688 2.85938L12 3.89062V6.1875C12 7.26562 11.1094 8.20312 10.0312 8.20312H7.96875C7.73438 8.01562 7.54688 7.875 7.26562 7.73438L6.89062 8.625L6.42188 8.4375L6.84375 7.54688C6.28125 7.3125 5.67188 7.17188 5.01562 7.17188C4.5 7.17188 3.98438 7.3125 3.51562 7.45312L3.84375 8.34375L3.375 8.53125L3 7.59375C1.96875 8.0625 1.125 8.90625 0.5625 9.9375L1.45312 10.3125L1.26562 10.7812L0.375 10.3594C0.140625 10.9219 0 11.5312 0 12.1875C0 12.7031 0.140625 13.2188 0.28125 13.6875L1.17188 13.3594L1.35938 13.8281L0.421875 14.2031C0.890625 15.2344 1.73438 16.0781 2.76562 16.6406L3.14062 15.75L3.60938 15.9375L3.1875 16.8281C3.75 17.0625 4.35938 17.2031 5.01562 17.2031C5.53125 17.2031 6.04688 17.0625 6.51562 16.9219L6.1875 16.0312L6.65625 15.8438L7.03125 16.7812C8.0625 16.3125 8.90625 15.4688 9.46875 14.4375L8.57812 14.0625L8.76562 13.5938L9.65625 14.0156C9.75 13.7344 9.84375 13.4531 9.89062 13.1719H15.0469C15.0469 13.3594 15 13.5 15 13.6875C15 15.6094 16.5938 17.2031 18.5156 17.2031C20.4375 17.2031 22.0312 15.6094 22.0312 13.6875C22.0312 12.75 21.6562 11.8594 21 11.25ZM5.01562 15.1875C3.375 15.1875 2.01562 13.8281 2.01562 12.1875C2.01562 10.5469 3.375 9.1875 5.01562 9.1875C6.65625 9.1875 8.01562 10.5469 8.01562 12.1875C8.01562 13.8281 6.65625 15.1875 5.01562 15.1875ZM9.89062 11.2031C9.84375 11.0156 9.79688 10.8281 9.75 10.6875L8.85938 11.0156L8.67188 10.5469L9.60938 10.1719H10.0312C12.2344 10.1719 14.0156 8.39062 14.0156 6.1875V5.20312H19.0312V10.2188C18.8438 10.2188 18.7031 10.1719 18.5156 10.1719C17.5781 10.1719 16.6875 10.5469 16.0781 11.2031H9.89062ZM18.5156 15.1875C17.6719 15.1875 17.0156 14.5312 17.0156 13.6875C17.0156 12.8438 17.6719 12.1875 18.5156 12.1875C19.3594 12.1875 20.0156 12.8438 20.0156 13.6875C20.0156 14.5312 19.3594 15.1875 18.5156 15.1875Z" fill="#3B82F6"/>
</svg>
