<svg width="22" height="22" viewBox="0 0 22 22" fill="none" xmlns="http://www.w3.org/2000/svg">
<path d="M21.5979 17.9694L12.551 8.87561C13.4416 6.53186 12.9729 3.81311 11.0979 1.89124C8.80102 -0.40564 5.19165 -0.59314 2.6604 1.23499L6.50415 5.07874L5.0979 6.48499L1.25415 2.68811C-0.620854 5.21936 -0.386479 8.78186 1.9104 11.0787C3.7854 12.9537 6.45727 13.4225 8.80102 12.5787L17.8948 21.6725C18.3166 22.0944 18.926 22.0944 19.301 21.6725L21.5979 19.3756C22.0198 19.0006 22.0198 18.3912 21.5979 17.9694ZM18.5979 19.5631L9.17602 10.0944C8.56665 10.5631 7.86352 10.8444 7.1604 10.9381C5.80102 11.1256 4.3479 10.7037 3.31665 9.67249C2.37915 8.73499 1.95727 7.46936 2.00415 6.25061L5.0979 9.34436L9.31665 5.07874L6.2229 1.98499C7.48852 1.93811 8.75415 2.35999 9.69165 3.29749C10.7698 4.37561 11.1916 5.87561 10.9104 7.28186C10.8166 7.98499 10.4885 8.64124 10.0666 9.25061L19.4885 18.6725L18.5979 19.5631Z" fill="#3B82F6"/>
</svg>
