<svg width="58" height="58" viewBox="0 0 58 58" fill="none" xmlns="http://www.w3.org/2000/svg">
<rect width="57.6" height="57.6" rx="19.2" fill="#3B82F6" fill-opacity="0.1"/>
<path d="M41.5125 37.1813L30.6563 26.2688C31.725 23.4563 31.1625 20.1938 28.9125 17.8876C26.1563 15.1313 21.825 14.9063 18.7875 17.1001L23.4 21.7126L21.7125 23.4001L17.1 18.8438C14.85 21.8813 15.1313 26.1563 17.8875 28.9126C20.1375 31.1626 23.3438 31.7251 26.1563 30.7126L37.0688 41.6251C37.575 42.1313 38.3063 42.1313 38.7563 41.6251L41.5125 38.8688C42.0188 38.4188 42.0188 37.6876 41.5125 37.1813ZM37.9125 39.0938L26.6063 27.7313C25.875 28.2938 25.0313 28.6313 24.1875 28.7438C22.5563 28.9688 20.8125 28.4626 19.575 27.2251C18.45 26.1001 17.9438 24.5813 18 23.1188L21.7125 26.8313L26.775 21.7126L23.0625 18.0001C24.5813 17.9438 26.1 18.4501 27.225 19.5751C28.5188 20.8688 29.025 22.6688 28.6875 24.3563C28.575 25.2001 28.1813 25.9876 27.675 26.7188L38.9813 38.0251L37.9125 39.0938Z" fill="#3B82F6"/>
</svg>
